<?xml version="1.0" encoding="UTF-8" ?>
<!DOCTYPE svg PUBLIC "-//W3C//DTD SVG 1.1//EN" "http://www.w3.org/Graphics/SVG/1.1/DTD/svg11.dtd">
<svg width="523pt" height="720pt" viewBox="0 0 523 720" version="1.1" xmlns="http://www.w3.org/2000/svg">
<g id="#c5553cff">
<path fill="#c5553c" opacity="1.00" d=" M 257.39 0.00 L 265.60 0.00 C 297.30 0.63 328.95 6.73 358.37 18.61 C 416.90 41.78 466.26 87.01 494.62 143.19 C 512.69 178.41 522.23 217.82 523.00 257.37 L 523.00 265.70 C 522.29 310.85 509.87 355.82 486.78 394.67 C 477.88 410.00 467.11 424.15 455.47 437.49 C 398.64 511.65 341.85 585.86 285.06 660.06 C 281.16 665.46 276.02 670.25 269.60 672.41 C 262.10 675.11 253.44 673.70 246.95 669.14 C 242.09 665.95 238.74 661.10 235.27 656.55 C 185.88 592.04 136.49 527.53 87.11 463.02 C 78.28 451.80 70.11 440.05 60.63 429.36 C 36.00 399.78 17.89 364.74 8.34 327.42 C 3.07 307.27 0.43 286.47 0.00 265.65 L 0.00 257.39 C 0.67 225.78 6.76 194.23 18.56 164.87 C 41.65 106.46 86.61 57.06 142.62 28.61 C 177.99 10.36 217.63 0.71 257.39 0.00 M 245.45 127.67 C 226.26 130.47 207.88 138.57 192.83 150.79 C 171.66 167.81 157.23 192.95 153.39 219.85 C 149.90 243.44 154.26 268.14 165.92 288.97 C 178.79 312.31 200.48 330.64 225.71 339.29 C 249.93 347.75 277.15 347.26 301.05 337.91 C 326.50 328.11 347.91 308.35 359.77 283.80 C 371.59 259.75 373.96 231.29 366.52 205.57 C 358.69 177.92 339.36 153.81 314.17 140.03 C 293.45 128.49 268.89 124.19 245.45 127.67 Z" />
</g>
</svg>
